<svg xmlns="http://www.w3.org/2000/svg" xmlns:xlink="http://www.w3.org/1999/xlink" width="0" height="0" style="display:none;"><symbol viewBox="0 0 1024 1024" id="iconfont-add_text"><path d="M895.744 129.578667v170.666666h-42.666667v426.666667h42.666667v170.666667h-170.666667v-42.666667h-426.666666v42.666667h-170.666667v-170.666667h42.666667v-426.666667h-42.666667v-170.666666h170.666667v42.666666h426.666666v-42.666666z m-725.333333 42.666666v85.333334h85.333333v-85.333334z m597.333333 0v85.333334h85.333333v-85.333334z m-597.333333 597.333334v85.333333h85.333333v-85.333333z m597.333333 0v85.333333h85.333333v-85.333333z m-469.333333 0h426.666666v-42.666667h42.666667v-426.666667h-42.666667v-42.666666h-426.666666v42.666666h-42.666667v426.666667h42.666667z m42.666666-426.666667h341.333334v85.333333h-341.333334z m128 85.333333h85.333334v256h-85.333334z" p-id="8150"></path></symbol><symbol viewBox="0 0 1024 1024" id="iconfont-arrow-end-1"><path d="M642.432 726.656l-45.226667-45.226667 137.386667-137.386666-560.426667-1.578667 0-64L734.592 480l-137.386667-137.386667 45.226667-45.226666 214.613333 214.613333z" p-id="9062"></path></symbol><symbol viewBox="0 0 1024 1024" id="iconfont-arrow-end-2"><path d="M171.861333 540.714667h341.333334v181.333333l341.333333-213.333333-341.333333-213.333334v181.333334h-341.333334z" p-id="9366"></path></symbol><symbol viewBox="0 0 1024 1024" id="iconfont-arrow-end-3"><path d="M173.312 537.130667h450.133333l-108.8 181.333333 341.333334-213.333333-341.333334-213.333334 108.8 181.333334H173.312z" p-id="9518"></path></symbol><symbol viewBox="0 0 1024 1024" id="iconfont-arrow-end-4"><path d="M167.637333 480h344.746667A170.368 170.368 0 0 1 679.637333 341.333333c94.293333 0 170.666667 76.373333 170.666667 170.666667s-76.373333 170.666667-170.666667 170.666667c-83.2 0-152.32-59.733333-167.253333-138.666667h-344.746667z" p-id="8302"></path></symbol><symbol viewBox="0 0 1024 1024" id="iconfont-arrow-end-5"><path d="M171.178667 476.288h288l181.333333-181.333333 213.333333 213.333333-213.333333 213.333333-181.333333-181.333333h-288z" p-id="9214"></path></symbol><symbol viewBox="0 0 1024 1024" id="iconfont-arrow-start-1"><path d="M381.568 297.344l45.226667 45.226667-137.386667 137.386666 560.426667 1.578667v64L289.408 544l137.386667 137.386667-45.226667 45.226666-214.613333-214.613333z" p-id="8910"></path></symbol><symbol viewBox="0 0 1024 1024" id="iconfont-arrow-start-2"><path d="M854.528 540.714667h-341.333333v181.333333l-341.333334-213.333333 341.333334-213.333334v181.333334h341.333333z" p-id="8606"></path></symbol><symbol viewBox="0 0 1024 1024" id="iconfont-arrow-start-3"><path d="M855.978667 537.130667H405.845333l108.8 181.333333-341.333333-213.333333 341.333333-213.333334-108.8 181.333334h450.133334z" p-id="9670"></path></symbol><symbol viewBox="0 0 1024 1024" id="iconfont-arrow-start-4"><path d="M850.304 480h-344.746667A170.368 170.368 0 0 0 338.304 341.333333c-94.293333 0-170.666667 76.373333-170.666667 170.666667s76.373333 170.666667 170.666667 170.666667c83.2 0 152.32-59.733333 167.253333-138.666667h344.746667z" p-id="8454"></path></symbol><symbol viewBox="0 0 1024 1024" id="iconfont-arrow-start-5"><path d="M853.845333 476.288h-288l-181.333333-181.333333-213.333333 213.333333 213.333333 213.333333 181.333333-181.333333h288z" p-id="8758"></path></symbol><symbol viewBox="0 0 1024 1024" id="iconfont-color-palette-fill"><path d="M509.866667 941.952a418.56 418.56 0 0 1-165.333334-33.066667 451.84 451.84 0 0 1-136.533333-91.733333 451.882667 451.882667 0 0 1-91.733333-136.533333 418.56 418.56 0 0 1-33.066667-165.333334c0-59.008 11.392-114.474667 34.133333-166.4a444.288 444.288 0 0 1 93.866667-135.466666c39.850667-38.4 86.058667-68.608 138.666667-90.666667a420.010667 420.010667 0 0 1 168.533333-34.133333c56.917333 0 110.592 9.984 161.066667 29.866666a404.224 404.224 0 0 1 132.266666 81.066667c38.4 34.133333 68.650667 75.050667 90.666667 122.666667 22.784 46.933333 34.133333 97.792 34.133333 152.533333 0 81.792-24.874667 144.725333-74.666666 188.8-49.749333 43.392-110.208 65.066667-181.333334 65.066667H601.6c-6.4 0-11.008 1.792-13.866667 5.333333a22.357333 22.357333 0 0 0-3.2 11.733333c0 8.533333 5.333333 20.992 16 37.333334 10.666667 15.658667 16 33.792 16 54.4 0 35.584-9.941333 61.866667-29.866666 78.933333-19.2 17.066667-44.8 25.6-76.8 25.6z" p-id="4874"></path></symbol><symbol viewBox="0 0 1024 1024" id="iconfont-connector-curved"><path d="M636.501333 703.402667h-11.648a85.205333 85.205333 0 0 1-85.12-85.333334v-170.666666c0-94.08-76.373333-170.666667-170.453333-170.666667h-11.605333a85.333333 85.333333 0 1 0 0 85.333333h11.605333c46.933333 0 85.12 38.314667 85.12 85.333334v170.666666c0 94.250667 76.288 170.666667 170.453333 170.666667h11.648a85.333333 85.333333 0 1 0 0-85.333333z" p-id="7846"></path></symbol><symbol viewBox="0 0 1024 1024" id="iconfont-connector-elbow"><path d="M639.658667 701.568h-96.768v-426.666667H360.832a85.333333 85.333333 0 1 0 0 85.333334h96.725333v426.666666h182.101334a85.333333 85.333333 0 1 0 0-85.333333z" p-id="7694"></path></symbol><symbol viewBox="0 0 1024 1024" id="iconfont-connector-straight"><path d="M304.768 401.450667a85.461333 85.461333 0 0 1-107.434667-82.432 85.333333 85.333333 0 1 1 167.808 22.101333l322.133334 322.133333a85.461333 85.461333 0 0 1 107.392 82.432 85.333333 85.333333 0 1 1-167.765334-22.101333z" p-id="7998"></path></symbol><symbol viewBox="0 0 1024 1024" id="iconfont-line-style-dash"><path d="M124.373333 781.141333l-41.173333-71.253333 127.744-75.52 41.130667 71.253333z m238.165334-135.765333l-41.130667-71.253333 131.242667-75.776 41.130666 71.253333z m238.08-139.178667l-41.173334-71.253333 120.234667-69.418667 41.130667 71.253334z m224.853333-129.877333l-41.088-71.253333 120.234667-69.418667 41.130666 71.253333z" p-id="3810"></path></symbol><symbol viewBox="0 0 1024 1024" id="iconfont-line-style-dot"><path d="M122.368 781.866667l-41.130667-71.253334 53.802667-32.853333 41.130667 71.253333z m112.384-63.104l-41.173333-71.253334 57.344-33.066666 41.130666 71.253333z m116.309333-66.944l-41.130666-71.253334 57.301333-33.066666 41.130667 71.253333z m113.109334-63.786667l-41.130667-71.253333 57.301333-33.066667 41.130667 71.253333z m110.848-64l-41.130667-71.253333 57.301333-33.066667 41.130667 71.253333z m108.885333-64.512l-41.173333-71.253333 57.344-33.109334 41.130666 71.253334z m104.106667-60.117333l-41.173334-71.253334 57.344-33.066666 41.130667 71.253333z m102.272-62.72l-41.130667-71.253334 57.301333-33.066666 41.130667 71.253333z" p-id="3962"></path></symbol><symbol viewBox="0 0 1024 1024" id="iconfont-line-style-solid"><path d="M134.613333 776.106667l-41.130666-71.253334L886.272 245.333333l41.130667 71.253334z" p-id="4114"></path></symbol><symbol viewBox="0 0 1024 1024" id="iconfont-line-width-bold"><path d="M142.805333 640v-213.333333h768v213.333333z" p-id="4570"></path></symbol><symbol viewBox="0 0 1024 1024" id="iconfont-line-width-normal"><path d="M142.805333 597.333333v-128h768v128z" p-id="4418"></path></symbol><symbol viewBox="0 0 1024 1024" id="iconfont-line-width-thin"><path d="M142.805333 554.666667v-42.666667h768v42.666667z" p-id="4266"></path></symbol><symbol viewBox="0 0 1024 1024" id="iconfont-swap2"><path d="M723.498667 512l-170.666667-170.666667v341.333334z m-426.666667 0l170.666667 170.666667V341.333333z" p-id="4722"></path></symbol></svg>